<svg width="240" height="240" viewBox="0 0 240 240" fill="none" xmlns="http://www.w3.org/2000/svg">
<path d="M222.895 181.746C238.339 156.01 243.578 125.42 237.578 96.0118C231.578 66.6032 214.775 40.5108 190.484 22.8814C166.193 5.25204 136.177 -2.63426 106.357 0.778156C76.5372 4.19057 49.0788 18.6539 29.3982 41.3152C9.71756 63.9765 -0.756332 93.1904 0.0425543 123.194C0.84144 153.198 12.8551 181.813 33.7137 203.395C54.5724 224.977 82.7615 237.958 112.721 239.779C142.68 241.6 172.233 232.127 195.552 213.23L165.5 190.96C148.946 203.206 132.889 204.895 112.721 204.5C92.0488 203.244 74.855 192.434 60.4625 177.542C46.07 162.651 37.7806 142.907 37.2294 122.204C36.6781 101.501 43.9051 81.3438 57.4848 65.7075C71.0644 50.0712 90.0107 40.0915 110.586 37.7369C131.162 35.3824 151.873 40.8239 168.634 52.9882C185.395 65.1525 196.989 83.1563 201.129 103.448C205.269 123.74 201.654 144.847 190.998 162.605L222.895 181.746Z" fill="#54C078"/>
<circle cx="119.5" cy="119.5" r="42.5" fill="#54C078"/>
</svg>
